<svg xmlns="http://www.w3.org/2000/svg" width="24" height="24" stroke-width="1.5" stroke="#808080" fill="none" stroke-linejoin="round" stroke-linecap="round" viewBox="0 0 24 24"> <g fill="none" fill-rule="evenodd"><rect width="24" height="24" style="stroke:rgba(0,0,0,0)"></rect><path d="M6,13 L6,2 L16,2 L22,8 L22,17.5 L22,22 L2,22 L2,13 L22,13 L6,13 Z M18.996,15.5112222 L17.498,19.5112222 L16,15.5112222 M12,15.5112222 C12.828,15.5112222 13.5,16.4072222 13.5,17.5112222 C13.5,18.6162222 12.828,19.5112222 12,19.5112222 C11.171,19.5112222 10.5,18.6162222 10.5,17.5112222 C10.5,16.4072222 11.171,15.5112222 12,15.5112222 Z M7.875,19.5112222 L7.875,15.5112222 L6.37721948,17.7179168 L4.87943896,15.5112222 L4.87943896,19.5112222" stroke="#808080"></path></g></svg>